<?xml version="1.0" encoding="utf-8"?>
<!-- Generator: Adobe Illustrator 23.0.4, SVG Export Plug-In . SVG Version: 6.00 Build 0)  -->
<svg version="1.1" id="Calque_1" xmlns="http://www.w3.org/2000/svg" xmlns:xlink="http://www.w3.org/1999/xlink" x="0px" y="0px"
	 viewBox="0 0 562.13 271.18" style="enable-background:new 0 0 562.13 271.18;" xml:space="preserve">
<style type="text/css">
	.st0{fill:#EF4136;}
	.st1{fill:#BE1E2D;stroke:#BE1E2D;stroke-width:0.75;stroke-miterlimit:10;}
	.st2{stroke:#000000;stroke-width:2;stroke-miterlimit:10;}
	.st3{stroke:#000000;stroke-width:6;stroke-miterlimit:10;}
	.st4{stroke:#000000;stroke-miterlimit:10;}
	.st5{fill:#EF4136;stroke:#EF4136;stroke-width:5;stroke-miterlimit:10;}
	.st6{fill:#BE1E2D;stroke:#BE1E2D;stroke-width:2;stroke-miterlimit:10;}
	.st7{fill:#FFFFFF;}
	.st8{fill:#EF4136;stroke:#EF4136;stroke-width:2;stroke-miterlimit:10;}
	.st9{stroke:#000000;stroke-width:5;stroke-miterlimit:10;}
	.st10{stroke:#000000;stroke-width:1.75;stroke-miterlimit:10;}
	.st11{fill:#8DC63F;}
	.st12{fill:#2B3990;}
	.st13{fill:#009444;}
</style>
<g>
	<path class="st10" d="M183.41,118.89c0.05,0.08,0.11,0.16,0.16,0.24c-0.38-0.78-0.84-1.53-1.34-2.23
		C182.6,117.57,182.99,118.24,183.41,118.89z"/>
	<path class="st8" d="M276.89,83.93c-12.69-23-39.95-33.93-64.82-25.97c-13.16,4.21-23.95,13-29.59,24.12
		c-2.83,5.58-4.3,11.45-4.45,17.19c1.57,0.49,3.1,1.09,4.58,1.83c7.82,3.9,13.11,10.77,14.9,19.34c0.76,3.62,0.75,7.35,0.05,10.97
		c6.89,3.14,14.62,3.53,21.76,0.63c12.68-5.14,20.15-18.41,17.38-30.85c-1.09-4.9-5.5-6.61-9.28-5.77c-3.87,0.86-7.37,4.5-6.24,9.56
		c1.22,5.48-3.44,10.79-8.46,12.56c-6.71,2.37-13.46-2.56-16.65-8.65c-3.59-6.85-2.64-15.14,2.6-22.74
		c4.89-7.09,13.15-12.21,22.67-14.06c17.73-3.45,35.46,5.88,43.14,22.68c8.83,19.33-1.45,41.02-14.01,54.87
		c-7.99,8.82-17.36,16.19-28.95,24.55c-7.73,5.57-15.47,11.11-23.22,16.65c-3.72,2.66-7.43,5.31-11.15,7.97
		c-3.72,2.67-4.88,6.95-2.88,10.67c1.04,1.93,3.12,3.46,5.44,4c0.6,0.14,1.2,0.21,1.79,0.21c1.43,0,2.78-0.42,3.91-1.22
		c3.78-2.71,7.56-5.41,11.35-8.11c8.24-5.88,16.76-11.96,25.1-18.02c11.05-8.03,22.63-16.79,32.06-27.85
		C279.78,139.85,291.53,110.48,276.89,83.93z"/>
	<path class="st6" d="M197.51,120.43c-1.79-8.57-7.08-15.44-14.9-19.34c-1.48-0.74-3.01-1.34-4.58-1.83
		c-7.75-2.43-16.44-1.86-24.06,1.72c-18.12,8.52-23.42,30.98-19.21,47.79c5.68,22.66,24.4,37.45,43.78,50.05
		c1.07,0.7,2.2,1.05,3.31,1.05c0.83,0,1.66-0.2,2.44-0.6c2.05-1.04,3.51-3.37,3.63-5.81c0.12-2.32-0.95-4.39-2.95-5.69
		c-11.2-7.28-23.81-16.08-31.67-28.37c-7.77-12.16-9.4-25.59-4.35-35.93c2.76-5.66,7.85-10.21,13.61-12.18
		c4.79-1.64,9.61-1.38,13.95,0.76c2.31,1.14,4.25,2.81,5.7,4.84c0.5,0.7,0.96,1.45,1.34,2.23c0.88,1.8,1.44,3.8,1.62,5.91
		c0.48,5.78-1.96,11.18-6.52,14.45c-4.83,3.46-12.46,4.18-16.36-0.71c-1.8-2.25-2.18-5.33-0.94-7.65c1.06-1.99,3.1-3.01,5.59-2.81
		c2.18,0.17,4-0.62,5.12-2.24c1.3-1.87,1.44-4.54,0.37-6.8c-1.03-2.18-3.01-3.54-5.44-3.74c-4.58-0.37-9.13,1.18-12.81,4.39
		c-3.85,3.35-6.2,8.08-6.47,12.96c-0.51,9.36,6.29,18.5,15.82,21.25c8.74,2.52,17.76,0.24,24.77-6.26
		c4.85-4.5,8.04-10.34,9.23-16.49C198.26,127.78,198.27,124.06,197.51,120.43z"/>
</g>
<g>
	<path class="st0" d="M409.15,95.7c-0.19-0.11-0.4-0.18-0.64-0.23c-0.24-0.05-0.49-0.07-0.75-0.07c-0.28,0-0.58,0.01-0.91,0.03
		c-0.32,0.02-0.56,0.04-0.73,0.07l-0.73,3.06h1.97c0.81,0,1.41-0.17,1.8-0.52c0.4-0.35,0.59-0.77,0.59-1.25
		c0-0.25-0.06-0.47-0.17-0.65C409.49,95.95,409.34,95.81,409.15,95.7z"/>
	<path class="st0" d="M443.31,95.44c-0.62,0-1.19,0.16-1.72,0.48s-0.99,0.75-1.39,1.29s-0.71,1.15-0.93,1.85s-0.33,1.42-0.33,2.16
		c0,1.01,0.21,1.82,0.63,2.44c0.42,0.62,1.11,0.94,2.06,0.94c0.62,0,1.19-0.16,1.72-0.49c0.53-0.32,0.99-0.75,1.39-1.29
		c0.4-0.54,0.7-1.15,0.93-1.84c0.22-0.69,0.33-1.41,0.33-2.16c0-1.01-0.21-1.82-0.63-2.45S444.26,95.44,443.31,95.44z"/>
	<path class="st0" d="M395.19,96.13c-0.56,0.9-1.12,1.79-1.66,2.68c-0.54,0.89-1.07,1.79-1.58,2.72h3.77
		c-0.07-0.82-0.14-1.69-0.21-2.62C395.43,97.98,395.33,97.05,395.19,96.13z"/>
	<path class="st0" d="M408.57,101.42c-0.16-0.15-0.37-0.27-0.63-0.36c-0.26-0.09-0.57-0.14-0.94-0.14h-2.17l-0.87,3.62
		c0.21,0.04,0.49,0.07,0.82,0.09c0.33,0.02,0.63,0.03,0.92,0.03c0.4,0,0.8-0.03,1.2-0.09c0.4-0.06,0.75-0.17,1.07-0.33
		c0.32-0.16,0.57-0.38,0.78-0.66c0.2-0.28,0.3-0.65,0.3-1.09c0-0.19-0.04-0.38-0.11-0.56C408.84,101.74,408.73,101.57,408.57,101.42
		z"/>
	<path class="st0" d="M457.75,95.44c-0.62,0-1.19,0.16-1.72,0.48s-0.99,0.75-1.39,1.29s-0.71,1.15-0.93,1.85
		c-0.22,0.7-0.33,1.42-0.33,2.16c0,1.01,0.21,1.82,0.63,2.44c0.42,0.62,1.11,0.94,2.06,0.94c0.62,0,1.19-0.16,1.72-0.49
		c0.53-0.32,0.99-0.75,1.39-1.29c0.4-0.54,0.7-1.15,0.93-1.84c0.22-0.69,0.33-1.41,0.33-2.16c0-1.01-0.21-1.82-0.63-2.45
		S458.7,95.44,457.75,95.44z"/>
	<path class="st0" d="M382.71,101.42c-0.16-0.15-0.37-0.27-0.63-0.36c-0.26-0.09-0.57-0.14-0.94-0.14h-2.17l-0.87,3.62
		c0.21,0.04,0.49,0.07,0.82,0.09c0.33,0.02,0.63,0.03,0.92,0.03c0.4,0,0.8-0.03,1.2-0.09c0.4-0.06,0.75-0.17,1.07-0.33
		c0.32-0.16,0.57-0.38,0.78-0.66c0.2-0.28,0.3-0.65,0.3-1.09c0-0.19-0.04-0.38-0.11-0.56C382.99,101.74,382.87,101.57,382.71,101.42
		z"/>
	<path class="st0" d="M386.83,87.45c-12.65,0-22.95,10.29-22.95,22.95v3.51h99.91c12.65,0,22.95-10.29,22.95-22.95v-3.51H386.83z
		 M382.53,106.79c-0.9,0.27-1.99,0.41-3.28,0.41c-0.81,0-1.63-0.03-2.48-0.1c-0.85-0.07-1.61-0.17-2.3-0.32l3.22-13.5
		c0.77-0.15,1.57-0.25,2.41-0.3c0.84-0.05,1.61-0.08,2.31-0.08c0.81,0,1.5,0.08,2.08,0.25c0.58,0.17,1.06,0.39,1.43,0.68
		c0.37,0.28,0.64,0.61,0.83,1c0.18,0.38,0.27,0.79,0.27,1.22c0,0.3-0.03,0.6-0.09,0.92c-0.06,0.32-0.18,0.64-0.36,0.96
		c-0.18,0.32-0.43,0.62-0.75,0.9c-0.32,0.28-0.73,0.54-1.24,0.76c0.6,0.27,1.05,0.63,1.33,1.1c0.28,0.46,0.42,0.98,0.42,1.54
		c0,0.65-0.13,1.27-0.38,1.86c-0.26,0.6-0.66,1.13-1.23,1.59C384.16,106.15,383.42,106.51,382.53,106.79z M396.12,107.02
		c-0.03-0.52-0.06-1.04-0.09-1.54c-0.03-0.5-0.07-1-0.11-1.5h-5.24c-0.27,0.5-0.55,1-0.85,1.5c-0.3,0.5-0.58,1.02-0.85,1.54h-3.28
		c0.87-1.5,1.69-2.89,2.45-4.17c0.76-1.28,1.49-2.48,2.2-3.61c0.71-1.13,1.39-2.2,2.06-3.21c0.67-1.01,1.36-2,2.05-2.97h2.8
		c0.21,0.97,0.42,2.04,0.61,3.21c0.19,1.17,0.38,2.38,0.54,3.61c0.17,1.23,0.32,2.46,0.46,3.68c0.14,1.23,0.27,2.38,0.39,3.45
		H396.12z M412.79,96.97c-0.06,0.32-0.18,0.64-0.36,0.96c-0.18,0.32-0.43,0.62-0.75,0.9c-0.32,0.28-0.73,0.54-1.24,0.76
		c0.6,0.27,1.05,0.63,1.33,1.1c0.28,0.46,0.42,0.98,0.42,1.54c0,0.65-0.13,1.27-0.38,1.86s-0.66,1.13-1.23,1.59
		c-0.56,0.46-1.3,0.83-2.2,1.11c-0.9,0.27-1.99,0.41-3.28,0.41c-0.81,0-1.63-0.03-2.48-0.1c-0.85-0.07-1.61-0.17-2.3-0.32l3.22-13.5
		c0.77-0.15,1.57-0.25,2.41-0.3c0.84-0.05,1.61-0.08,2.31-0.08c0.81,0,1.5,0.08,2.08,0.25c0.58,0.17,1.06,0.39,1.43,0.68
		c0.37,0.28,0.64,0.61,0.83,1c0.18,0.38,0.27,0.79,0.27,1.22C412.88,96.34,412.85,96.65,412.79,96.97z M421.68,99.43
		c-0.55,0.67-1.13,1.36-1.75,2.07l-1.33,5.52h-3.14l1.33-5.52c-0.56-1.42-1.07-2.81-1.53-4.17c-0.46-1.36-0.89-2.78-1.29-4.27h3.34
		c0.21,0.97,0.45,1.91,0.7,2.84c0.26,0.93,0.54,1.89,0.85,2.9c0.39-0.5,0.76-0.98,1.12-1.44s0.7-0.93,1.04-1.39
		c0.34-0.46,0.67-0.93,1-1.41c0.33-0.48,0.67-0.98,1.02-1.5h3.46c-0.56,0.79-1.11,1.54-1.63,2.25s-1.05,1.41-1.57,2.08
		C422.77,98.08,422.23,98.76,421.68,99.43z M434.1,101.24h-5.22l-1.39,5.78h-3.12l3.34-13.96h9.04l-0.64,2.6h-5.9l-0.7,2.98h5.22
		L434.1,101.24z M448.7,101.73c-0.36,1.04-0.87,1.97-1.55,2.8c-0.68,0.82-1.51,1.49-2.49,2c-0.98,0.51-2.09,0.76-3.34,0.76
		c-0.82,0-1.57-0.13-2.26-0.4c-0.69-0.27-1.28-0.65-1.77-1.16c-0.5-0.5-0.88-1.12-1.16-1.84c-0.28-0.73-0.41-1.55-0.41-2.46
		c0-1.05,0.18-2.09,0.54-3.12c0.36-1.03,0.88-1.96,1.56-2.79c0.68-0.82,1.51-1.5,2.49-2.01c0.98-0.52,2.09-0.78,3.32-0.78
		c0.82,0,1.57,0.14,2.26,0.4c0.69,0.27,1.28,0.65,1.77,1.16c0.5,0.5,0.88,1.12,1.16,1.84c0.28,0.72,0.41,1.54,0.41,2.46
		C449.23,99.65,449.05,100.69,448.7,101.73z M461.58,104.53c-0.68,0.82-1.51,1.49-2.49,2c-0.98,0.51-2.09,0.76-3.34,0.76
		c-0.82,0-1.57-0.13-2.26-0.4c-0.69-0.27-1.28-0.65-1.77-1.16c-0.5-0.5-0.88-1.12-1.16-1.84c-0.28-0.73-0.41-1.55-0.41-2.46
		c0-1.05,0.18-2.09,0.54-3.12c0.36-1.03,0.88-1.96,1.56-2.79c0.68-0.82,1.51-1.5,2.49-2.01c0.98-0.52,2.09-0.78,3.32-0.78
		c0.82,0,1.57,0.14,2.26,0.4c0.69,0.27,1.28,0.65,1.77,1.16c0.5,0.5,0.88,1.12,1.16,1.84c0.28,0.72,0.41,1.54,0.41,2.46
		c0,1.05-0.18,2.09-0.53,3.13C462.78,102.78,462.26,103.71,461.58,104.53z M476.64,102.15c-0.44,1.08-1.08,1.98-1.9,2.73
		c-0.83,0.75-1.83,1.32-3.01,1.72c-1.18,0.4-2.52,0.6-4.01,0.6c-0.56,0-1.22-0.03-1.95-0.1c-0.74-0.07-1.45-0.17-2.13-0.32
		l3.24-13.47c0.77-0.15,1.5-0.25,2.21-0.31c0.71-0.06,1.34-0.09,1.9-0.09c0.99,0,1.88,0.14,2.67,0.4c0.79,0.27,1.45,0.65,1.99,1.15
		s0.96,1.09,1.24,1.77c0.28,0.68,0.42,1.44,0.42,2.28C477.3,99.86,477.08,101.07,476.64,102.15z"/>
	<path class="st0" d="M383.29,95.7c-0.19-0.11-0.4-0.18-0.64-0.23c-0.24-0.05-0.49-0.07-0.75-0.07c-0.28,0-0.58,0.01-0.91,0.03
		c-0.32,0.02-0.56,0.04-0.73,0.07l-0.73,3.06h1.97c0.81,0,1.41-0.17,1.8-0.52c0.4-0.35,0.59-0.77,0.59-1.25
		c0-0.25-0.06-0.47-0.17-0.65C383.63,95.95,383.48,95.81,383.29,95.7z"/>
	<path class="st0" d="M473.31,96.4c-0.28-0.28-0.63-0.49-1.07-0.63c-0.44-0.15-0.96-0.22-1.58-0.22c-0.4,0-0.81,0.02-1.23,0.06
		l-2.13,8.9c0.15,0.01,0.3,0.02,0.45,0.03c0.15,0.01,0.37,0.01,0.63,0.01c0.87,0,1.66-0.13,2.37-0.4c0.7-0.27,1.3-0.65,1.79-1.16
		c0.49-0.5,0.87-1.12,1.14-1.85c0.27-0.73,0.4-1.55,0.4-2.47c0-0.47-0.06-0.9-0.18-1.28S473.58,96.67,473.31,96.4z"/>
</g>
<g>
	<path d="M82.94,154.99c2.36-18.29,11.39-40.75,17.74-59.4c3.43-9.62,6.81-18.81,14.55-17.81c3.44,0.45,3.94,3.35,3.55,6.37
		c-0.17,1.29-0.36,2.8-0.72,3.84c-3.84,17.88-8.84,34.51-13.62,52.93c-0.47,1.91-0.69,3.63-0.91,5.35
		c-1.86,14.42,4.67,23.13,16.07,24.61c6.89,0.89,14.22-3.41,20.89-2.55c1.94,0.25,2.3,4.23,1.91,7.25
		c-1.59,12.26-29.42,14.35-38.02,13.24C84.8,186.3,80.66,172.63,82.94,154.99z"/>
</g>
<g>
	<path d="M279.71,158.77c0-16.13,5.31-36.63,8.73-53.52c1.9-8.73,3.8-17.08,10.63-17.08c3.04,0,3.8,2.47,3.8,5.12
		c0,1.14,0,2.47-0.19,3.42c-1.33,15.94-3.8,30.94-5.88,47.45c-0.19,1.71-0.19,3.23-0.19,4.75c0,12.72,6.64,19.55,16.7,19.55
		c6.07,0,11.96-4.55,17.84-4.55c1.71,0,2.47,3.42,2.47,6.07c0,10.82-23.91,15.75-31.51,15.75
		C284.83,185.72,279.71,174.34,279.71,158.77z"/>
	<path d="M368.16,120.24c15.56,0,22.97,4.56,26,20.69c5.5,29.99-13.1,48.97-35.3,48.97c-14.8,0-22.21-14.42-23.72-25.05
		C333.42,147.57,345.95,120.24,368.16,120.24z M361.51,171.87c13.1,0,20.31-14.42,19.17-24.29c-1.14-8.54-5.5-18.6-15.56-13.66
		C354.11,139.22,351.08,170.16,361.51,171.87z"/>
	<path d="M413.52,126.51c2.47,0,4.37,3.23,4.37,5.88c0,10.63-3.04,20.69-3.04,31.13h0.76c5.5-2.66,22.97-14.8,34.16-25.05
		c3.61-3.23,3.99-7.4,10.06-7.4c6.64,0,14.23,18.6,16.32,24.11c3.04,8.16,3.61,10.82,3.61,17.27c0,9.87-3.61,10.25-9.11,10.25
		c-13.29,0-17.65-18.03-19.74-28.66c-11.77,11.58-26.76,29.99-44.79,29.99c-8.92,0-8.73-10.06-8.73-16.89
		C397.39,158.96,404.22,126.51,413.52,126.51z"/>
</g>
</svg>
